<svg xmlns="http://www.w3.org/2000/svg" viewBox="0 0 190 64">
<path d="M72.9,46.28a11.69,11.69,0,0,1-3-.37,7.91,7.91,0,0,1-2.54-1.16,6.3,6.3,0,0,1-1.81-2A6.49,6.49,0,0,1,64.74,40h2.91a5,5,0,0,0,.77,1.76,3.94,3.94,0,0,0,1.25,1.12,5.42,5.42,0,0,0,1.55.6,7.25,7.25,0,0,0,1.67.19A6,6,0,0,0,76,42.9a2.54,2.54,0,0,0,1.34-2.35,3.15,3.15,0,0,0-.88-2.27,6.44,6.44,0,0,0-2.89-1.42l-2.67-.7a8,8,0,0,1-4-2.25,5.58,5.58,0,0,1-1.34-3.79,4.74,4.74,0,0,1,.52-2.28,5.32,5.32,0,0,1,1.43-1.7A6.6,6.6,0,0,1,69.62,25a9.68,9.68,0,0,1,2.67-.38,8.51,8.51,0,0,1,3,.49,6.73,6.73,0,0,1,2.2,1.27,6.14,6.14,0,0,1,2.12,4H76.69a4.46,4.46,0,0,0-4.41-3.21,4.83,4.83,0,0,0-2.73.81,2.45,2.45,0,0,0-1.15,2.1,2.86,2.86,0,0,0,.78,2,5.67,5.67,0,0,0,2.64,1.33l3.2.83a7.3,7.3,0,0,1,3.84,2.17,5.72,5.72,0,0,1,1.34,3.9A6.07,6.07,0,0,1,79.64,43a4.93,4.93,0,0,1-1.56,1.83,7.23,7.23,0,0,1-2.33,1.06A11.45,11.45,0,0,1,72.9,46.28Zm20.78,0a10.86,10.86,0,0,1-4.36-.84,10.56,10.56,0,0,1-3.43-2.32,11,11,0,0,1,0-15.27,10.44,10.44,0,0,1,3.43-2.33,11.66,11.66,0,0,1,8.73,0,10.33,10.33,0,0,1,3.43,2.33,11,11,0,0,1,0,15.27,10.56,10.56,0,0,1-3.43,2.32A10.9,10.9,0,0,1,93.68,46.28Zm0-2.67a7.83,7.83,0,0,0,3.23-.67A7.65,7.65,0,0,0,101,38.62a9,9,0,0,0,0-6.28,7.61,7.61,0,0,0-7.3-5,7.84,7.84,0,0,0-3.24.67A7.41,7.41,0,0,0,88,29.77a8,8,0,0,0-1.58,2.58,9,9,0,0,0,0,6.28A8,8,0,0,0,88,41.21,7.6,7.6,0,0,0,90.45,43a8,8,0,0,0,3.23.66Zm22.82,2.67a7.64,7.64,0,0,1-3.06-.58A7.1,7.1,0,0,1,111,44.06a7.31,7.31,0,0,1-1.58-2.58,9.72,9.72,0,0,1-.56-3.34V25.07h2.9v12.6A6.25,6.25,0,0,0,113.17,42a4.66,4.66,0,0,0,3.66,1.6,5.58,5.58,0,0,0,2.44-.55,6,6,0,0,0,2-1.63,7.82,7.82,0,0,0,1.33-2.58,10.72,10.72,0,0,0,.48-3.38V25.07H126v20.8h-2.92V42.41a7.11,7.11,0,0,1-2.85,3,7.76,7.76,0,0,1-3.74.92Zm15.44-21.21h2.91v4.28A6.39,6.39,0,0,1,142.38,25v3a5.44,5.44,0,0,0-1.75-.29,5,5,0,0,0-2,.45,5.26,5.26,0,0,0-1.87,1.4A7.69,7.69,0,0,0,135.37,32a10,10,0,0,0-.54,3.43V45.87h-2.91ZM154,46.28a10.86,10.86,0,0,1-4.36-.84,10.56,10.56,0,0,1-3.43-2.32,11,11,0,0,1,0-15.27,10.33,10.33,0,0,1,3.43-2.33,10.86,10.86,0,0,1,4.36-.85,11.23,11.23,0,0,1,6.69,2.12A9.9,9.9,0,0,1,163,29.18a10.46,10.46,0,0,1,1.42,3h-3.16a6.72,6.72,0,0,0-2.68-3.48,8.45,8.45,0,0,0-7.82-.64,7.4,7.4,0,0,0-2.48,1.73,7.67,7.67,0,0,0-1.58,2.57,9,9,0,0,0,0,6.28,7.71,7.71,0,0,0,1.58,2.58A7.58,7.58,0,0,0,150.77,43a8.45,8.45,0,0,0,7.82-.71,6.72,6.72,0,0,0,2.68-3.48h3.16a10.21,10.21,0,0,1-1.47,3,9.58,9.58,0,0,1-2.33,2.38A11.16,11.16,0,0,1,154,46.26Zm23.74,0a10.28,10.28,0,0,1-4.13-.81,9.53,9.53,0,0,1-3.27-2.27,10.38,10.38,0,0,1-2.14-3.43,11.48,11.48,0,0,1-.77-4.3,12.44,12.44,0,0,1,.71-4.23,10,10,0,0,1,2.05-3.44,9.36,9.36,0,0,1,3.29-2.31,11.24,11.24,0,0,1,4.36-.84,9.55,9.55,0,0,1,4.39,1,9.06,9.06,0,0,1,3.13,2.6A10.38,10.38,0,0,1,187.2,32a12.51,12.51,0,0,1,.35,4.35H170.39a6.9,6.9,0,0,0,.62,3A7.44,7.44,0,0,0,174.94,43a7.11,7.11,0,0,0,2.77.53,7.71,7.71,0,0,0,3.74-.87,6.48,6.48,0,0,0,2.74-3h3A9.15,9.15,0,0,1,186,42.19a8.19,8.19,0,0,1-2,2.11,9.65,9.65,0,0,1-2.77,1.45,11.08,11.08,0,0,1-3.57.53Zm0-18.92a7.81,7.81,0,0,0-2.3.34,6.27,6.27,0,0,0-2.15,1.1,6.81,6.81,0,0,0-1.7,2,8.86,8.86,0,0,0-1,3h13.93A7.72,7.72,0,0,0,182.2,29a6.51,6.51,0,0,0-4.48-1.68Z"/>
<path fill="#3ddc84" d="M41.32,38a2.3,2.3,0,1,1,2.3-2.3,2.3,2.3,0,0,1-2.3,2.3h0M15.9,38a2.3,2.3,0,1,1,2.3-2.3A2.3,2.3,0,0,1,15.9,38h0M42.15,24.16l4.6-8a1,1,0,0,0-1.58-1.11h0a.53.53,0,0,0-.08.15L40.44,23.3a28.93,28.93,0,0,0-23.65,0l-4.66-8.06a1,1,0,0,0-1.74.81.46.46,0,0,0,.09.15l4.59,8A27.15,27.15,0,0,0,1,45.89H56.23A27.16,27.16,0,0,0,42.15,24.16"/>
</svg>
